<svg width="45" height="45" viewBox="0 0 45 45" fill="none" xmlns="http://www.w3.org/2000/svg">
<path d="M0 8C0 3.58172 3.58172 0 8 0H37C41.4183 0 45 3.58172 45 8V37C45 41.4183 41.4183 45 37 45H8C3.58172 45 0 41.4183 0 37V8Z" fill="#222222"/>
<path d="M38.165 11.02C38.135 11.38 38.045 11.875 37.895 12.505C37.775 13.135 37.625 13.75 37.445 14.35C37.295 14.95 37.13 15.475 36.95 15.925C36.8 16.345 36.665 16.525 36.545 16.465C36.515 16.435 36.5 16.345 36.5 16.195C36.5 16.045 36.5 15.88 36.5 15.7C36.53 15.49 36.545 15.295 36.545 15.115C36.575 14.935 36.605 14.8 36.635 14.71C36.665 14.5 36.71 14.215 36.77 13.855C36.83 13.495 36.875 13.135 36.905 12.775C36.965 12.385 37.01 12.025 37.04 11.695C37.1 11.335 37.145 11.035 37.175 10.795C37.235 10.225 37.265 9.685 37.265 9.175C37.265 8.665 37.235 8.125 37.175 7.555C37.175 7.495 37.175 7.42 37.175 7.33C37.205 7.24 37.25 7.195 37.31 7.195C37.49 7.195 37.61 7.315 37.67 7.555C37.82 7.975 37.955 8.44 38.075 8.95C38.195 9.43 38.225 10.12 38.165 11.02ZM38.66 7.87C39.11 9.07 39.365 10.345 39.425 11.695C39.515 13.015 39.47 14.35 39.29 15.7C39.11 17.05 38.825 18.385 38.435 19.705C38.075 20.995 37.655 22.21 37.175 23.35C36.545 24.85 35.885 26.335 35.195 27.805C34.505 29.245 33.83 30.67 33.17 32.08C32.51 33.46 31.895 34.81 31.325 36.13C30.785 37.45 30.35 38.74 30.02 40C29.99 40.09 29.93 40.15 29.84 40.18C29.75 40.24 29.705 40.18 29.705 40C29.645 38.56 29.825 37.105 30.245 35.635C30.695 34.165 31.25 32.695 31.91 31.225C32.6 29.725 33.32 28.225 34.07 26.725C34.85 25.225 35.555 23.695 36.185 22.135C36.575 21.175 36.95 20.095 37.31 18.895C37.67 17.695 37.97 16.465 38.21 15.205C38.45 13.945 38.6 12.685 38.66 11.425C38.72 10.165 38.66 9.01 38.48 7.96C38.42 7.66 38.435 7.555 38.525 7.645L38.57 7.69C38.6 7.72 38.615 7.75 38.615 7.78C38.615 7.81 38.63 7.84 38.66 7.87ZM23.855 12.37C23.825 12.73 23.75 13.165 23.63 13.675C23.54 14.155 23.435 14.62 23.315 15.07C23.195 15.49 23.06 15.85 22.91 16.15C22.79 16.45 22.67 16.57 22.55 16.51C22.52 16.51 22.505 16.435 22.505 16.285C22.505 16.135 22.505 15.97 22.505 15.79C22.535 15.58 22.55 15.385 22.55 15.205C22.58 15.025 22.61 14.89 22.64 14.8C22.82 13.93 22.925 13.015 22.955 12.055C23.015 11.515 23.03 11.02 23 10.57C23 10.09 22.955 9.565 22.865 8.995C22.865 8.935 22.835 8.815 22.775 8.635C22.745 8.425 22.775 8.32 22.865 8.32C22.925 8.32 23.015 8.41 23.135 8.59L23.315 8.86C23.435 9.13 23.54 9.385 23.63 9.625C23.72 9.865 23.78 10.105 23.81 10.345C23.87 10.585 23.9 10.87 23.9 11.2C23.9 11.53 23.885 11.92 23.855 12.37ZM35.15 20.695C35.24 20.755 35.255 20.905 35.195 21.145C35.135 21.385 35.105 21.55 35.105 21.64C34.985 22 34.835 22.435 34.655 22.945C34.505 23.425 34.325 23.935 34.115 24.475C33.935 24.985 33.74 25.48 33.53 25.96C33.35 26.44 33.17 26.845 32.99 27.175C32.9 27.355 32.735 27.715 32.495 28.255C32.285 28.765 32.045 29.395 31.775 30.145C31.505 30.865 31.22 31.66 30.92 32.53C30.62 33.37 30.35 34.195 30.11 35.005C29.87 35.815 29.66 36.565 29.48 37.255C29.3 37.915 29.21 38.44 29.21 38.83C29.21 38.98 29.18 39.085 29.12 39.145C29.09 39.175 29.06 39.175 29.03 39.145C29 39.145 28.925 39.085 28.805 38.965C28.655 38.755 28.445 38.5 28.175 38.2C27.905 37.87 27.665 37.54 27.455 37.21C27.275 36.91 27.095 36.52 26.915 36.04C26.735 35.53 26.57 35.035 26.42 34.555C26.27 34.045 26.165 33.61 26.105 33.25C26.045 32.89 26.06 32.68 26.15 32.62C26.18 32.62 26.24 32.695 26.33 32.845C26.42 32.965 26.51 33.115 26.6 33.295C26.69 33.475 26.765 33.655 26.825 33.835C26.915 33.985 26.975 34.09 27.005 34.15C27.215 34.54 27.395 34.93 27.545 35.32C27.725 35.68 27.89 36.055 28.04 36.445C28.19 36.835 28.355 37.18 28.535 37.48C28.715 37.75 28.82 37.87 28.85 37.84C28.88 37.84 28.895 37.765 28.895 37.615C28.895 37.435 28.88 37.24 28.85 37.03C28.85 36.82 28.835 36.625 28.805 36.445C28.805 36.235 28.805 36.085 28.805 35.995C28.745 34.855 28.805 33.82 28.985 32.89C29.195 31.96 29.465 31.12 29.795 30.37C30.455 28.84 31.205 27.295 32.045 25.735C32.915 24.145 33.77 22.675 34.61 21.325C34.67 21.265 34.76 21.145 34.88 20.965C35.03 20.785 35.12 20.695 35.15 20.695ZM28.85 40C27.77 39.46 26.84 38.71 26.06 37.75C25.31 36.76 24.68 35.71 24.17 34.6C23.66 33.46 23.255 32.305 22.955 31.135C22.655 29.965 22.445 28.885 22.325 27.895C22.265 27.445 22.22 27.01 22.19 26.59C22.16 26.14 22.145 25.84 22.145 25.69C21.605 26.95 21.035 28.21 20.435 29.47C19.835 30.73 19.265 31.975 18.725 33.205C18.185 34.405 17.69 35.59 17.24 36.76C16.79 37.9 16.43 38.98 16.16 40C16.13 40.12 16.07 40.225 15.98 40.315C15.89 40.315 15.845 40.21 15.845 40C15.815 38.56 16.01 37.12 16.43 35.68C16.85 34.24 17.375 32.785 18.005 31.315C18.665 29.815 19.37 28.315 20.12 26.815C20.87 25.285 21.56 23.74 22.19 22.18C22.58 21.22 22.925 20.215 23.225 19.165C23.555 18.085 23.825 17.005 24.035 15.925C24.245 14.815 24.365 13.705 24.395 12.595C24.425 11.455 24.35 10.36 24.17 9.31C24.14 9.16 24.11 9.07 24.08 9.04C24.05 8.98 24.065 8.95 24.125 8.95C24.215 8.95 24.29 9.025 24.35 9.175C24.65 9.985 24.86 10.795 24.98 11.605C25.13 12.385 25.235 13.18 25.295 13.99C25.655 14.65 25.955 15.49 26.195 16.51C26.435 17.5 26.645 18.535 26.825 19.615C27.035 20.695 27.2 21.76 27.32 22.81C27.47 23.86 27.62 24.775 27.77 25.555C27.92 26.245 28.025 26.965 28.085 27.715C28.175 28.465 28.25 29.185 28.31 29.875C28.52 29.035 28.775 28.18 29.075 27.31C29.405 26.44 29.735 25.6 30.065 24.79C30.395 23.95 30.71 23.17 31.01 22.45C31.31 21.73 31.58 21.1 31.82 20.56C32.09 19.9 32.405 19.165 32.765 18.355C33.125 17.545 33.485 16.75 33.845 15.97C34.235 15.19 34.61 14.455 34.97 13.765C35.36 13.045 35.705 12.445 36.005 11.965C36.155 11.755 36.275 11.59 36.365 11.47C36.485 11.32 36.575 11.26 36.635 11.29C36.695 11.35 36.695 11.455 36.635 11.605C36.605 11.725 36.56 11.86 36.5 12.01C36.2 13.09 35.84 14.23 35.42 15.43C35 16.6 34.55 17.785 34.07 18.985C33.59 20.185 33.095 21.37 32.585 22.54C32.105 23.71 31.625 24.82 31.145 25.87C30.635 27.04 30.095 28.225 29.525 29.425C28.955 30.625 28.55 31.945 28.31 33.385C28.25 33.715 28.175 33.925 28.085 34.015C28.025 34.075 27.92 33.85 27.77 33.34C27.02 30.52 26.48 27.7 26.15 24.88C25.82 22.03 25.445 19.165 25.025 16.285C24.935 17.155 24.86 17.89 24.8 18.49C24.74 19.09 24.74 19.81 24.8 20.65C24.86 21.73 24.935 22.81 25.025 23.89C25.115 24.94 25.175 25.93 25.205 26.86C25.205 26.95 25.19 27.145 25.16 27.445C25.16 27.745 25.115 27.895 25.025 27.895C24.995 27.925 24.965 27.91 24.935 27.85C24.905 27.76 24.86 27.655 24.8 27.535C24.77 27.415 24.725 27.31 24.665 27.22C24.635 27.1 24.62 27.01 24.62 26.95C24.47 26.35 24.305 25.615 24.125 24.745C23.945 23.875 23.78 23.02 23.63 22.18C23.39 22.93 23.24 23.695 23.18 24.475C23.12 25.225 23.18 26.14 23.36 27.22C23.57 28.36 23.84 29.53 24.17 30.73C24.5 31.9 24.89 33.04 25.34 34.15C25.82 35.26 26.36 36.31 26.96 37.3C27.56 38.29 28.235 39.145 28.985 39.865C29.075 39.925 29.105 39.97 29.075 40C29.045 40.06 28.97 40.06 28.85 40ZM22.325 12.64C22.385 12.7 22.385 12.805 22.325 12.955C22.265 13.105 22.22 13.24 22.19 13.36C21.98 14.44 21.68 15.52 21.29 16.6C20.93 17.65 20.525 18.7 20.075 19.75C19.625 20.77 19.145 21.805 18.635 22.855C18.155 23.875 17.675 24.91 17.195 25.96C16.685 27.1 16.16 28.27 15.62 29.47C15.11 30.67 14.72 32.005 14.45 33.475C14.39 33.775 14.33 33.97 14.27 34.06C14.21 34.15 14.105 33.925 13.955 33.385C13.385 31.345 12.935 29.26 12.605 27.13C12.305 24.97 12.035 22.78 11.795 20.56C11.645 19 11.435 17.41 11.165 15.79C10.895 14.14 10.505 12.445 9.995 10.705C9.965 10.525 9.965 10.42 9.995 10.39C10.025 10.36 10.07 10.39 10.13 10.48C10.19 10.54 10.25 10.6 10.31 10.66C10.67 11.08 11 11.68 11.3 12.46C11.6 13.21 11.87 14.05 12.11 14.98C12.35 15.88 12.56 16.84 12.74 17.86C12.92 18.88 13.085 19.87 13.235 20.83C13.385 21.79 13.505 22.69 13.595 23.53C13.715 24.37 13.835 25.075 13.955 25.645C14.075 26.335 14.165 27.055 14.225 27.805C14.315 28.525 14.39 29.245 14.45 29.965C14.66 29.125 14.915 28.285 15.215 27.445C15.545 26.575 15.875 25.735 16.205 24.925C16.565 24.115 16.895 23.35 17.195 22.63C17.525 21.91 17.795 21.295 18.005 20.785C18.575 19.405 19.19 18.04 19.85 16.69C20.54 15.34 21.2 14.185 21.83 13.225C21.92 13.075 22.01 12.94 22.1 12.82C22.19 12.67 22.265 12.61 22.325 12.64ZM11.345 26.95C11.375 27.04 11.375 27.235 11.345 27.535C11.315 27.835 11.27 27.985 11.21 27.985C11.15 28.015 11.09 27.895 11.03 27.625C10.97 27.325 10.91 27.115 10.85 26.995C10.76 26.605 10.64 26.125 10.49 25.555C10.37 24.985 10.235 24.4 10.085 23.8C9.965 23.2 9.845 22.615 9.725 22.045C9.635 21.475 9.575 20.98 9.545 20.56C9.515 20.35 9.455 19.945 9.365 19.345C9.305 18.715 9.2 17.98 9.05 17.14C8.93 16.27 8.78 15.355 8.6 14.395C8.42 13.435 8.225 12.505 8.015 11.605C7.835 10.705 7.64 9.91 7.43 9.22C7.25 8.5 7.055 7.975 6.845 7.645C6.665 7.405 6.62 7.255 6.71 7.195C6.77 7.135 6.845 7.15 6.935 7.24C7.025 7.33 7.1 7.405 7.16 7.465C7.58 7.825 7.97 8.335 8.33 8.995C8.72 9.655 9.065 10.375 9.365 11.155C9.695 11.905 9.965 12.67 10.175 13.45C10.385 14.23 10.535 14.935 10.625 15.565C10.865 17.365 11.03 19.285 11.12 21.325C11.24 23.335 11.315 25.21 11.345 26.95ZM21.2 20.785C21.29 20.815 21.305 20.95 21.245 21.19C21.185 21.43 21.14 21.595 21.11 21.685C20.99 22.045 20.84 22.48 20.66 22.99C20.51 23.47 20.33 23.98 20.12 24.52C19.94 25.03 19.745 25.525 19.535 26.005C19.355 26.485 19.175 26.89 18.995 27.22C18.875 27.46 18.635 28.06 18.275 29.02C17.945 29.98 17.585 31.075 17.195 32.305C16.805 33.505 16.43 34.72 16.07 35.95C15.74 37.15 15.53 38.125 15.44 38.875C15.41 39.085 15.365 39.19 15.305 39.19C15.215 39.22 15.095 39.16 14.945 39.01C14.795 38.83 14.585 38.59 14.315 38.29C14.045 37.96 13.82 37.63 13.64 37.3C13.49 37 13.31 36.595 13.1 36.085C12.92 35.575 12.755 35.08 12.605 34.6C12.455 34.09 12.35 33.655 12.29 33.295C12.23 32.905 12.245 32.695 12.335 32.665C12.365 32.665 12.41 32.74 12.47 32.89C12.56 33.01 12.65 33.175 12.74 33.385C12.83 33.565 12.905 33.745 12.965 33.925C13.055 34.105 13.13 34.225 13.19 34.285C13.37 34.675 13.535 35.05 13.685 35.41C13.835 35.74 13.985 36.1 14.135 36.49C14.285 36.91 14.45 37.27 14.63 37.57C14.84 37.84 14.96 37.945 14.99 37.885C14.99 37.885 14.99 37.81 14.99 37.66C14.99 37.48 14.975 37.3 14.945 37.12C14.915 36.91 14.885 36.7 14.855 36.49C14.855 36.28 14.855 36.13 14.855 36.04C14.855 34.9 14.945 33.88 15.125 32.98C15.335 32.05 15.59 31.21 15.89 30.46C16.52 28.93 17.255 27.385 18.095 25.825C18.965 24.235 19.805 22.75 20.615 21.37C20.675 21.31 20.765 21.205 20.885 21.055C21.035 20.875 21.14 20.785 21.2 20.785ZM8.195 27.175C7.895 25.375 7.67 23.545 7.52 21.685C7.37 19.825 7.22 18.01 7.07 16.24C6.92 14.47 6.71 12.775 6.44 11.155C6.2 9.535 5.84 8.05 5.36 6.7C5.33 6.64 5.3 6.595 5.27 6.565C5.27 6.505 5.3 6.445 5.36 6.385C5.39 6.355 5.435 6.385 5.495 6.475C5.555 6.565 5.6 6.64 5.63 6.7C6.44 7.96 7.04 9.415 7.43 11.065C7.85 12.685 8.165 14.41 8.375 16.24C8.585 18.04 8.75 19.885 8.87 21.775C9.02 23.665 9.245 25.51 9.545 27.31C9.725 28.45 9.98 29.605 10.31 30.775C10.67 31.945 11.09 33.085 11.57 34.195C12.05 35.275 12.59 36.31 13.19 37.3C13.79 38.29 14.45 39.16 15.17 39.91C15.2 39.94 15.2 39.97 15.17 40C15.14 40.06 15.065 40.06 14.945 40C13.955 39.37 13.085 38.605 12.335 37.705C11.585 36.775 10.94 35.755 10.4 34.645C9.86 33.505 9.41 32.305 9.05 31.045C8.69 29.785 8.405 28.495 8.195 27.175Z" fill="#E27B04"/>
</svg>
