<svg width="94" height="102" viewBox="0 0 94 102" fill="none" xmlns="http://www.w3.org/2000/svg">
<circle cx="47" cy="47" r="46" fill="#021C00" stroke="#E09400" stroke-width="2"/>
<path d="M43.825 51.375C44.325 50.125 44.725 48.85 45.025 47.55C45.375 46.2 45.55 44.975 45.55 43.875C45.55 42.725 45.15 40.625 44.35 37.575C42.95 32.475 41.75 29.45 40.75 28.5L40.3 27.975C39.8 27.675 39.55 27.325 39.55 26.925C39.55 26.075 40.675 25.35 42.925 24.75C45.175 24.15 47 23.85 48.4 23.85C49.85 23.85 50.7 24.275 50.95 25.125C51.55 26.975 52.2 29.65 52.9 33.15C53.65 36.65 54.275 39.675 54.775 42.225C55.325 44.725 55.75 46.65 56.05 48C56.35 49.35 56.75 51.1 57.25 53.25C58.2 57.25 59.15 60.525 60.1 63.075C60.4 63.775 60.75 64.125 61.15 64.125C61.6 64.125 62.05 63.7 62.5 62.85C63 61.95 63.65 60.7 64.45 59.1C65.3 57.45 66.4 54.55 67.75 50.4C69.15 46.25 69.85 42.65 69.85 39.6C69.85 34.9 68.3 31.575 65.2 29.625C64.95 29.325 64.825 29 64.825 28.65C64.825 28.3 65 27.95 65.35 27.6C65.7 27.35 66.2 27.025 66.85 26.625C67.5 26.175 68.8 25.625 70.75 24.975C72.7 24.275 74.45 23.925 76 23.925C77.55 23.925 78.475 24.15 78.775 24.6C79.075 25 79.225 25.75 79.225 26.85C79.225 31.7 77.775 38.15 74.875 46.2C72.025 54.2 68.975 61.275 65.725 67.425C62.525 73.525 60.125 77.35 58.525 78.9C57.675 79.65 57.175 80.025 57.025 80.025C56.575 80.025 56.15 79.675 55.75 78.975C54.05 76.125 52.2 70.55 50.2 62.25C49.3 58.35 48.775 56.15 48.625 55.65C48.475 55.15 48.35 54.9 48.25 54.9C48 54.9 47.775 55.15 47.575 55.65C45.825 59.7 43.875 63.675 41.725 67.575C39.575 71.425 37.85 74.275 36.55 76.125L34.675 78.9C34.175 79.6 33.675 79.95 33.175 79.95C32.675 79.95 32.225 79.625 31.825 78.975C30.475 76.425 28.825 71.5 26.875 64.2L25.9 60.45C25.7 59.75 25.25 57.85 24.55 54.75C21.9 42.9 19.875 35.5 18.475 32.55C17.675 30.9 16.975 29.825 16.375 29.325C15.825 28.825 15.375 28.525 15.025 28.425C14.475 28.175 14.2 27.875 14.2 27.525C14.2 27.125 14.4 26.75 14.8 26.4C15.4 25.95 16.725 25.425 18.775 24.825C20.825 24.175 22.55 23.85 23.95 23.85C25.35 23.85 26.175 24.275 26.425 25.125C27.425 26.975 28.6 31.125 29.95 37.575C32.8 51.075 34.9 59.575 36.25 63.075C36.5 63.775 36.85 64.125 37.3 64.125C37.75 64.125 38.15 63.75 38.5 63C38.95 62.55 39.825 60.825 41.125 57.825C42.475 54.775 43.375 52.625 43.825 51.375Z" fill="#C24600"/>
<path d="M43.825 51.375L43.3608 51.1893L43.3575 51.1974L43.3546 51.2056L43.825 51.375ZM45.025 47.55L44.5408 47.4245L44.5378 47.4376L45.025 47.55ZM44.35 37.575L44.8337 37.4481L44.8322 37.4426L44.35 37.575ZM40.75 28.5L40.3704 28.8254L40.387 28.8448L40.4056 28.8625L40.75 28.5ZM40.3 27.975L40.6796 27.6496L40.6268 27.588L40.5572 27.5462L40.3 27.975ZM42.925 24.75L43.0538 25.2331L43.0538 25.2331L42.925 24.75ZM50.95 25.125L50.4701 25.2661L50.4744 25.2792L50.95 25.125ZM52.9 33.15L52.4097 33.2481L52.4111 33.2548L52.9 33.15ZM54.775 42.225L54.2842 42.3212L54.2867 42.3324L54.775 42.225ZM56.05 48L56.5381 47.8915L56.5381 47.8915L56.05 48ZM57.25 53.25L56.763 53.3633L56.7635 53.3655L57.25 53.25ZM60.1 63.075L59.6315 63.2496L59.6357 63.2609L59.6404 63.272L60.1 63.075ZM62.5 62.85L62.0628 62.6071L62.0581 62.6161L62.5 62.85ZM64.45 59.1L64.0055 58.871L64.0028 58.8764L64.45 59.1ZM67.75 50.4L67.2762 50.2402L67.2745 50.2453L67.75 50.4ZM65.2 29.625L64.8159 29.9451L64.8667 30.006L64.9338 30.0482L65.2 29.625ZM65.35 27.6L65.0594 27.1931L65.0257 27.2172L64.9965 27.2464L65.35 27.6ZM66.85 26.625L67.1121 27.0508L67.1235 27.0438L67.1346 27.0361L66.85 26.625ZM70.75 24.975L70.9082 25.4495L70.9189 25.4456L70.75 24.975ZM78.775 24.6L78.359 24.8773L78.3667 24.8889L78.375 24.9L78.775 24.6ZM74.875 46.2L74.4046 46.0305L74.404 46.0322L74.875 46.2ZM65.725 67.425L65.2829 67.1914L65.2822 67.1927L65.725 67.425ZM58.525 78.9L58.8558 79.2749L58.8645 79.2672L58.8729 79.2591L58.525 78.9ZM55.75 78.975L56.1842 78.7269L56.1794 78.7189L55.75 78.975ZM50.2 62.25L49.7128 62.3624L49.7139 62.3671L50.2 62.25ZM48.625 55.65L49.1039 55.5063L49.1039 55.5063L48.625 55.65ZM47.575 55.65L48.0342 55.8484L48.0392 55.8357L47.575 55.65ZM41.725 67.575L42.1616 67.8188L42.1629 67.8164L41.725 67.575ZM36.55 76.125L36.1408 75.8375L36.1357 75.8451L36.55 76.125ZM34.675 78.9L35.082 79.1907L35.0893 79.1799L34.675 78.9ZM31.825 78.975L31.3831 79.2089L31.3907 79.2233L31.3992 79.237L31.825 78.975ZM26.875 64.2L26.3911 64.3258L26.3919 64.329L26.875 64.2ZM25.9 60.45L26.384 60.3241L26.3808 60.3126L25.9 60.45ZM24.55 54.75L24.0621 54.8591L24.0623 54.8601L24.55 54.75ZM18.475 32.55L18.9267 32.3356L18.9249 32.3319L18.475 32.55ZM16.375 29.325L16.0387 29.695L16.0466 29.7022L16.0549 29.7091L16.375 29.325ZM15.025 28.425L14.8181 28.8802L14.8519 28.8956L14.8876 28.9058L15.025 28.425ZM14.8 26.4L14.5 26L14.4849 26.0113L14.4707 26.0237L14.8 26.4ZM18.775 24.825L18.9155 25.305L18.9261 25.3016L18.775 24.825ZM26.425 25.125L25.9453 25.2661L25.9602 25.3165L25.9851 25.3628L26.425 25.125ZM29.95 37.575L29.4606 37.6774L29.4608 37.6783L29.95 37.575ZM36.25 63.075L36.721 62.9068L36.7165 62.8951L36.25 63.075ZM38.5 63L38.1464 62.6464L38.0842 62.7087L38.0469 62.7886L38.5 63ZM41.125 57.825L40.6678 57.6226L40.6662 57.6262L41.125 57.825ZM44.2892 51.5607C44.7987 50.2871 45.2064 48.9876 45.5122 47.6624L44.5378 47.4376C44.2436 48.7124 43.8513 49.9629 43.3608 51.1893L44.2892 51.5607ZM45.509 47.6755C45.8669 46.2949 46.05 45.0269 46.05 43.875H45.05C45.05 44.9231 44.8831 46.1051 44.541 47.4245L45.509 47.6755ZM46.05 43.875C46.05 42.6513 45.6319 40.4915 44.8336 37.4481L43.8664 37.7019C44.6681 40.7585 45.05 42.7987 45.05 43.875H46.05ZM44.8322 37.4426C44.1299 34.8844 43.4744 32.8335 42.8648 31.2969C42.2649 29.7846 41.682 28.6957 41.0944 28.1375L40.4056 28.8625C40.818 29.2543 41.3351 30.1529 41.9352 31.6656C42.5257 33.154 43.1701 35.1656 43.8678 37.7074L44.8322 37.4426ZM41.1296 28.1746L40.6796 27.6496L39.9204 28.3004L40.3704 28.8254L41.1296 28.1746ZM40.5572 27.5462C40.1326 27.2914 40.05 27.0765 40.05 26.925H39.05C39.05 27.5735 39.4674 28.0586 40.0428 28.4037L40.5572 27.5462ZM40.05 26.925C40.05 26.7514 40.1593 26.4897 40.6646 26.164C41.1625 25.8432 41.9478 25.5281 43.0538 25.2331L42.7962 24.2669C41.6522 24.5719 40.75 24.9193 40.1229 25.3235C39.5032 25.7228 39.05 26.2485 39.05 26.925H40.05ZM43.0538 25.2331C45.2856 24.638 47.0627 24.35 48.4 24.35V23.35C46.9373 23.35 45.0644 23.662 42.7962 24.2669L43.0538 25.2331ZM48.4 24.35C49.0845 24.35 49.5728 24.4516 49.9014 24.616C50.2123 24.7714 50.3876 24.9847 50.4703 25.2661L51.4297 24.9839C51.2624 24.4153 50.8877 23.9911 50.3486 23.7215C49.8272 23.4608 49.1655 23.35 48.4 23.35V24.35ZM50.4744 25.2792C51.0654 27.1015 51.7109 29.7542 52.4097 33.2481L53.3903 33.0519C52.6891 29.5458 52.0346 26.8485 51.4256 24.9707L50.4744 25.2792ZM52.4111 33.2548C53.1607 36.7529 53.7851 39.7749 54.2843 42.3212L55.2657 42.1288C54.7649 39.5751 54.1393 36.5471 53.3889 33.0452L52.4111 33.2548ZM54.2867 42.3324C54.8367 44.8325 55.2618 46.7579 55.5619 48.1085L56.5381 47.8915C56.2382 46.5421 55.8133 44.6175 55.2633 42.1176L54.2867 42.3324ZM55.5619 48.1085C55.8624 49.4607 56.2628 51.2125 56.763 53.3633L57.737 53.1367C57.2372 50.9875 56.8376 49.2393 56.5381 47.8915L55.5619 48.1085ZM56.7635 53.3655C57.7162 57.3766 58.6716 60.6732 59.6315 63.2496L60.5685 62.9004C59.6284 60.3768 58.6839 57.1234 57.7365 53.1345L56.7635 53.3655ZM59.6404 63.272C59.9462 63.9855 60.4142 64.625 61.15 64.625V63.625C61.0858 63.625 60.8538 63.5645 60.5596 62.878L59.6404 63.272ZM61.15 64.625C61.5441 64.625 61.8858 64.4366 62.1683 64.1698C62.4487 63.905 62.7039 63.5336 62.9419 63.0839L62.0581 62.6161C61.8461 63.0164 61.6513 63.2825 61.4817 63.4427C61.3142 63.6009 61.2059 63.625 61.15 63.625V64.625ZM62.9371 63.0928C63.4422 62.1835 64.096 60.9261 64.8972 59.3236L64.0028 58.8764C63.204 60.4739 62.5578 61.7165 62.0629 62.6072L62.9371 63.0928ZM64.8945 59.329C65.7648 57.6396 66.8753 54.7054 68.2255 50.5547L67.2745 50.2453C65.9248 54.3946 64.8352 57.2604 64.0055 58.871L64.8945 59.329ZM68.2238 50.5598C69.6342 46.3788 70.35 42.7224 70.35 39.6H69.35C69.35 42.5776 68.6658 46.1212 67.2762 50.2402L68.2238 50.5598ZM70.35 39.6C70.35 34.7834 68.7531 31.2693 65.4662 29.2018L64.9338 30.0482C67.8469 31.8807 69.35 35.0166 69.35 39.6H70.35ZM65.5841 29.3049C65.3998 29.0837 65.325 28.8694 65.325 28.65H64.325C64.325 29.1306 64.5002 29.5663 64.8159 29.9451L65.5841 29.3049ZM65.325 28.65C65.325 28.4794 65.4081 28.2491 65.7036 27.9535L64.9965 27.2464C64.592 27.6509 64.325 28.1206 64.325 28.65H65.325ZM65.6406 28.0069C65.9768 27.7667 66.4656 27.4486 67.1121 27.0508L66.588 26.1992C65.9344 26.6013 65.4232 26.9333 65.0594 27.1931L65.6406 28.0069ZM67.1346 27.0361C67.7184 26.632 68.9536 26.1008 70.9081 25.4493L70.5919 24.5007C68.6464 25.1492 67.2816 25.718 66.5654 26.2139L67.1346 27.0361ZM70.9189 25.4456C72.8319 24.7589 74.5233 24.425 76 24.425V23.425C74.3767 23.425 72.5682 23.7911 70.5811 24.5044L70.9189 25.4456ZM76 24.425C76.7567 24.425 77.3307 24.4805 77.7381 24.5796C78.1632 24.683 78.3152 24.8117 78.359 24.8773L79.191 24.3226C78.9348 23.9383 78.4743 23.7295 77.9744 23.6079C77.4568 23.482 76.7933 23.425 76 23.425V24.425ZM78.375 24.9C78.4628 25.017 78.5548 25.2236 78.6222 25.5606C78.6886 25.8926 78.725 26.3199 78.725 26.85H79.725C79.725 26.2801 79.6864 25.7824 79.6028 25.3644C79.5202 24.9514 79.3872 24.583 79.175 24.3L78.375 24.9ZM78.725 26.85C78.725 31.6141 77.2976 37.9999 74.4046 46.0305L75.3454 46.3695C78.2524 38.3001 79.725 31.7859 79.725 26.85H78.725ZM74.404 46.0322C71.5604 54.0143 68.5196 61.0666 65.2829 67.1914L66.1671 67.6586C69.4304 61.4834 72.4896 54.3857 75.346 46.3678L74.404 46.0322ZM65.2822 67.1927C63.6855 70.2366 62.2921 72.7055 61.1015 74.603C59.9057 76.5088 58.9318 77.8098 58.1771 78.5409L58.8729 79.2591C59.7182 78.4402 60.7443 77.0537 61.9485 75.1345C63.1579 73.207 64.5645 70.7134 66.1678 67.6573L65.2822 67.1927ZM58.1942 78.5251C57.7725 78.8971 57.4467 79.1681 57.2125 79.3438C57.0945 79.4322 57.0095 79.4891 56.9533 79.5216C56.925 79.5379 56.913 79.5428 56.9141 79.5423C56.9151 79.5419 56.9241 79.5384 56.9397 79.5346C56.9543 79.5311 56.9843 79.525 57.025 79.525V80.525C57.1358 80.525 57.2283 80.4934 57.2812 80.4725C57.3417 80.4486 57.4 80.4184 57.453 80.3878C57.5592 80.3265 57.6805 80.2428 57.8125 80.1437C58.0783 79.9444 58.4275 79.6529 58.8558 79.2749L58.1942 78.5251ZM57.025 79.525C56.862 79.525 56.5659 79.3951 56.1841 78.7269L55.3159 79.2231C55.7341 79.9549 56.288 80.525 57.025 80.525V79.525ZM56.1794 78.7189C54.5232 75.9422 52.6872 70.4373 50.6861 62.1329L49.7139 62.3671C51.7129 70.6627 53.5768 76.3078 55.3206 79.2311L56.1794 78.7189ZM50.6872 62.1376C49.7899 58.2494 49.2599 56.0264 49.1039 55.5063L48.1461 55.7937C48.2901 56.2736 48.8101 58.4506 49.7128 62.3624L50.6872 62.1376ZM49.1039 55.5063C49.0264 55.2481 48.9479 55.0278 48.866 54.8639C48.826 54.784 48.7728 54.6918 48.7013 54.6124C48.6403 54.5445 48.4884 54.4 48.25 54.4V55.4C48.0616 55.4 47.9629 55.2867 47.958 55.2814C47.9428 55.2645 47.949 55.266 47.9715 55.3111C48.0146 55.3972 48.0736 55.5519 48.1461 55.7937L49.1039 55.5063ZM48.25 54.4C47.939 54.4 47.6951 54.5608 47.5221 54.753C47.3538 54.9401 47.2211 55.1885 47.1108 55.4643L48.0392 55.8357C48.1289 55.6115 48.2087 55.4849 48.2654 55.422C48.3174 55.3642 48.311 55.4 48.25 55.4V54.4ZM47.116 55.4517C45.3724 59.4869 43.4295 63.4475 41.2871 67.3336L42.1629 67.8164C44.3205 63.9025 46.2776 59.9131 48.034 55.8483L47.116 55.4517ZM41.2885 67.3312C39.1406 71.1774 37.4257 74.0092 36.1409 75.8375L36.9591 76.4125C38.2743 74.5408 40.0094 71.6726 42.1615 67.8188L41.2885 67.3312ZM36.1357 75.8451L34.2607 78.6201L35.0893 79.1799L36.9643 76.4049L36.1357 75.8451ZM34.2681 78.6094C33.7954 79.2712 33.4256 79.45 33.175 79.45V80.45C33.9244 80.45 34.5546 79.9288 35.0819 79.1906L34.2681 78.6094ZM33.175 79.45C32.9278 79.45 32.6109 79.2981 32.2508 78.713L31.3992 79.237C31.8391 79.9519 32.4222 80.45 33.175 80.45V79.45ZM32.2669 78.7411C30.9469 76.2477 29.3091 71.3747 27.3581 64.071L26.3919 64.329C28.3409 71.6253 30.0031 76.6023 31.3831 79.2089L32.2669 78.7411ZM27.3589 64.0742L26.3839 60.3242L25.4161 60.5758L26.3911 64.3258L27.3589 64.0742ZM26.3808 60.3126C26.1856 59.6294 25.7391 57.7458 25.0377 54.6399L24.0623 54.8601C24.7609 57.9542 25.2144 59.8706 25.4192 60.5874L26.3808 60.3126ZM25.0379 54.6409C23.7121 48.7121 22.5414 43.8911 21.526 40.1805C20.5133 36.4798 19.6474 33.8543 18.9267 32.3356L18.0233 32.7644C18.7026 34.1957 19.5492 36.7452 20.5615 40.4445C21.5711 44.1339 22.7379 48.9379 24.0621 54.8591L25.0379 54.6409ZM18.9249 32.3319C18.1248 30.6817 17.3859 29.5165 16.6951 28.9409L16.0549 29.7091C16.5641 30.1335 17.2252 31.1183 18.0251 32.7681L18.9249 32.3319ZM16.7113 28.955C16.1518 28.4464 15.6299 28.0778 15.1624 27.9442L14.8876 28.9058C15.1201 28.9722 15.4982 29.2036 16.0387 29.695L16.7113 28.955ZM15.2319 27.9698C14.7222 27.7382 14.7 27.5626 14.7 27.525H13.7C13.7 28.1874 14.2278 28.6118 14.8181 28.8802L15.2319 27.9698ZM14.7 27.525C14.7 27.3127 14.8001 27.0643 15.1293 26.7763L14.4707 26.0237C13.9999 26.4357 13.7 26.9373 13.7 27.525H14.7ZM15.1 26.8C15.3456 26.6158 15.7767 26.3916 16.4279 26.1336C17.0709 25.8788 17.8987 25.6024 18.9154 25.3049L18.6346 24.3451C17.6013 24.6476 16.7416 24.9337 16.0596 25.2039C15.3858 25.4709 14.8544 25.7342 14.5 26L15.1 26.8ZM18.9261 25.3016C20.9505 24.6597 22.621 24.35 23.95 24.35V23.35C22.479 23.35 20.6995 23.6903 18.6239 24.3484L18.9261 25.3016ZM23.95 24.35C24.6074 24.35 25.075 24.4511 25.3898 24.6132C25.6872 24.7665 25.8609 24.9791 25.9453 25.2661L26.9047 24.9839C26.7391 24.4209 26.3753 23.996 25.8477 23.7243C25.3375 23.4614 24.6926 23.35 23.95 23.35V24.35ZM25.9851 25.3628C26.4577 26.237 26.9895 27.6928 27.5752 29.7612C28.1583 31.8209 28.7869 34.4585 29.4606 37.6774L30.4394 37.4726C29.7631 34.2415 29.1292 31.5791 28.5373 29.4888C27.948 27.4072 27.3923 25.863 26.8649 24.8872L25.9851 25.3628ZM29.4608 37.6783C32.3081 51.1658 34.416 59.7096 35.7835 63.2549L36.7165 62.8951C35.384 59.4404 33.2919 50.9842 30.4392 37.4717L29.4608 37.6783ZM35.7791 63.2432C36.0477 63.9951 36.5165 64.625 37.3 64.625V63.625C37.1835 63.625 36.9523 63.5549 36.7209 62.9068L35.7791 63.2432ZM37.3 64.625C38.0691 64.625 38.5918 63.9856 38.9531 63.2114L38.0469 62.7886C37.7082 63.5144 37.4309 63.625 37.3 63.625V64.625ZM38.8536 63.3536C39.0099 63.1972 39.1741 62.9627 39.3442 62.6836C39.5191 62.3965 39.7177 62.0325 39.9397 61.5949C40.3838 60.7194 40.9321 59.5277 41.5838 58.0238L40.6662 57.6262C40.0179 59.1223 39.4787 60.2931 39.0478 61.1426C38.8323 61.5675 38.6466 61.9066 38.4902 62.1633C38.329 62.4279 38.2151 62.5778 38.1464 62.6464L38.8536 63.3536ZM41.5822 58.0274C42.932 54.9779 43.8387 52.8131 44.2954 51.5444L43.3546 51.2056C42.9113 52.4369 42.018 54.5721 40.6678 57.6226L41.5822 58.0274Z" fill="#7E2E00"/>
<path d="M21 24C28.9261 34.9204 28.12 41.0544 24 52C28.6933 61.5083 31.0138 65.2535 37 64C39.9505 68.0297 41.1104 69.3161 38.5 73.5M45 61.5C41.7476 60.0766 42.0626 57.9136 43 53C46.0913 52.285 48.0471 52.4066 48.5 45.5M50 24C49.0734 28.4071 48.1492 30.2453 42 31C45.1289 35.2483 47.6382 36.898 54 38C50.3294 38.9671 48.6705 40.0231 48.5 45.5M48.5 45.5C54.9701 48.0194 56.4727 51.0659 58.5 57C54.3751 58.727 52.9421 60.8876 51.5 67.5C57.9932 67.3805 59.727 68.6787 62.5 73.5C64.7982 67.8466 65.6609 64.1811 64.5 58.5C69.4857 56.819 70.6292 55.0966 74 49C69.9121 47.6198 69.6435 43.1819 69.5 37.5C74.262 37.2104 76.0096 36.0625 79 31C74.1938 31.7306 71.9111 31.062 69.5 25.5" stroke="#7E2E00" stroke-width="0.5" stroke-linecap="round" stroke-linejoin="round"/>
</svg>
