<svg xmlns="http://www.w3.org/2000/svg" viewBox="0 0 1920 1080"><g transform="
          rotate(280 960 540) 
          translate(-887.440815701088 -499.185458831862)
          scale(1.9244175163553)
        "><rect width="1920" height="1080" fill="rgb(172, 170, 183)"></rect><g transform="translate(0, 0)"><path fill="rgb(193, 191, 201)" fill-opacity="1" d="M0,352.943L26.667,350.075C53.333,347.207,106.667,341.471,160,340.581C213.333,339.692,266.667,343.65,320,344.095C373.333,344.54,426.667,341.472,480,303.183C533.333,264.894,586.667,191.383,640,185.175C693.333,178.967,746.667,240.06,800,221.336C853.333,202.612,906.667,104.069,960,98.48C1013.333,92.892,1066.667,180.258,1120,202.019C1173.333,223.78,1226.667,179.937,1280,139.356C1333.333,98.774,1386.667,61.455,1440,80.719C1493.333,99.983,1546.667,175.829,1600,189.505C1653.333,203.181,1706.667,154.687,1760,130.414C1813.333,106.141,1866.667,106.09,1893.333,106.065L1920,106.039L1920,1080L1893.333,1080C1866.667,1080,1813.333,1080,1760,1080C1706.667,1080,1653.333,1080,1600,1080C1546.667,1080,1493.333,1080,1440,1080C1386.667,1080,1333.333,1080,1280,1080C1226.667,1080,1173.333,1080,1120,1080C1066.667,1080,1013.333,1080,960,1080C906.667,1080,853.333,1080,800,1080C746.667,1080,693.333,1080,640,1080C586.667,1080,533.333,1080,480,1080C426.667,1080,373.333,1080,320,1080C266.667,1080,213.333,1080,160,1080C106.667,1080,53.333,1080,26.667,1080L0,1080Z"></path></g><g transform="translate(0, 360)"><path fill="rgb(214, 213, 219)" fill-opacity="1" d="M0,317.296L26.667,319.907C53.333,322.517,106.667,327.739,160,284.675C213.333,241.611,266.667,150.263,320,112.623C373.333,74.983,426.667,91.052,480,126.273C533.333,161.493,586.667,215.866,640,254.33C693.333,292.794,746.667,315.35,800,300.514C853.333,285.679,906.667,233.452,960,180.313C1013.333,127.174,1066.667,73.123,1120,43.365C1173.333,13.606,1226.667,8.141,1280,41.079C1333.333,74.017,1386.667,145.358,1440,167.782C1493.333,190.206,1546.667,163.713,1600,136.177C1653.333,108.642,1706.667,80.062,1760,72.255C1813.333,64.448,1866.667,77.412,1893.333,83.894L1920,90.377L1920,720L1893.333,720C1866.667,720,1813.333,720,1760,720C1706.667,720,1653.333,720,1600,720C1546.667,720,1493.333,720,1440,720C1386.667,720,1333.333,720,1280,720C1226.667,720,1173.333,720,1120,720C1066.667,720,1013.333,720,960,720C906.667,720,853.333,720,800,720C746.667,720,693.333,720,640,720C586.667,720,533.333,720,480,720C426.667,720,373.333,720,320,720C266.667,720,213.333,720,160,720C106.667,720,53.333,720,26.667,720L0,720Z"></path></g><g transform="translate(0, 720)"><path fill="rgb(234, 234, 237)" fill-opacity="1" d="M0,106.659L26.667,135.77C53.333,164.88,106.667,223.101,160,262.75C213.333,302.399,266.667,323.476,320,336.118C373.333,348.761,426.667,352.969,480,328.624C533.333,304.279,586.667,251.381,640,209.295C693.333,167.208,746.667,135.933,800,108.637C853.333,81.34,906.667,58.022,960,92.473C1013.333,126.925,1066.667,219.145,1120,272.167C1173.333,325.189,1226.667,339.013,1280,346.415C1333.333,353.817,1386.667,354.798,1440,334.281C1493.333,313.765,1546.667,271.752,1600,245.517C1653.333,219.282,1706.667,208.825,1760,187.458C1813.333,166.092,1866.667,133.817,1893.333,117.679L1920,101.541L1920,360L1893.333,360C1866.667,360,1813.333,360,1760,360C1706.667,360,1653.333,360,1600,360C1546.667,360,1493.333,360,1440,360C1386.667,360,1333.333,360,1280,360C1226.667,360,1173.333,360,1120,360C1066.667,360,1013.333,360,960,360C906.667,360,853.333,360,800,360C746.667,360,693.333,360,640,360C586.667,360,533.333,360,480,360C426.667,360,373.333,360,320,360C266.667,360,213.333,360,160,360C106.667,360,53.333,360,26.667,360L0,360Z"></path></g></g></svg>