<svg xmlns="http://www.w3.org/2000/svg" viewBox="0 0 1920 1080"><g transform="
          rotate(97 960 540) 
          translate(-850.9400018034644 -478.65375101444874)
          scale(1.886395835211942)
        "><rect width="1920" height="1080" fill="rgb(105, 105, 123)"></rect><g transform="translate(0, 0)"><path fill="rgb(155, 155, 167)" fill-opacity="1" d="M0,529.415L9.143,525.113C18.286,520.81,36.571,512.206,54.857,510.872C73.143,509.538,91.429,515.475,109.714,516.142C128,516.81,146.286,512.208,164.571,454.775C182.857,397.341,201.143,287.075,219.429,277.762C237.714,268.45,256,360.091,274.286,332.004C292.571,303.917,310.857,156.103,329.143,147.721C347.429,139.338,365.714,270.387,384,303.028C402.286,335.67,420.571,269.905,438.857,209.033C457.143,148.161,475.429,92.183,493.714,121.078C512,149.974,530.286,263.743,548.571,284.257C566.857,304.771,585.143,232.03,603.429,195.621C621.714,159.212,640,159.135,658.286,211.911C676.571,264.687,694.857,370.316,713.143,427.046C731.429,483.776,749.714,491.608,768,427.012C786.286,362.417,804.571,225.394,822.857,168.935C841.143,112.475,859.429,136.578,877.714,189.409C896,242.24,914.286,323.799,932.571,381.495C950.857,439.191,969.143,473.025,987.429,450.772C1005.714,428.518,1024,350.178,1042.286,270.469C1060.571,190.761,1078.857,109.684,1097.143,65.047C1115.429,20.41,1133.714,12.212,1152,61.618C1170.286,111.025,1188.571,218.037,1206.857,251.673C1225.143,285.309,1243.429,245.57,1261.714,204.266C1280,162.962,1298.286,120.094,1316.571,108.383C1334.857,96.672,1353.143,116.118,1371.429,129.912C1389.714,143.706,1408,151.848,1426.286,199.584C1444.571,247.32,1462.857,334.652,1481.143,394.125C1499.429,453.598,1517.714,485.214,1536,504.177C1554.286,523.141,1572.571,529.453,1590.857,492.936C1609.143,456.419,1627.429,377.072,1645.714,313.942C1664,250.812,1682.286,203.9,1700.571,162.955C1718.857,122.01,1737.143,87.033,1755.429,138.71C1773.714,190.387,1792,328.718,1810.286,408.251C1828.571,487.784,1846.857,508.519,1865.143,519.622C1883.429,530.725,1901.714,532.196,1910.857,532.932L1920,533.667L1920,1080L1910.857,1080C1901.714,1080,1883.429,1080,1865.143,1080C1846.857,1080,1828.571,1080,1810.286,1080C1792,1080,1773.714,1080,1755.429,1080C1737.143,1080,1718.857,1080,1700.571,1080C1682.286,1080,1664,1080,1645.714,1080C1627.429,1080,1609.143,1080,1590.857,1080C1572.571,1080,1554.286,1080,1536,1080C1517.714,1080,1499.429,1080,1481.143,1080C1462.857,1080,1444.571,1080,1426.286,1080C1408,1080,1389.714,1080,1371.429,1080C1353.143,1080,1334.857,1080,1316.571,1080C1298.286,1080,1280,1080,1261.714,1080C1243.429,1080,1225.143,1080,1206.857,1080C1188.571,1080,1170.286,1080,1152,1080C1133.714,1080,1115.429,1080,1097.143,1080C1078.857,1080,1060.571,1080,1042.286,1080C1024,1080,1005.714,1080,987.429,1080C969.143,1080,950.857,1080,932.571,1080C914.286,1080,896,1080,877.714,1080C859.429,1080,841.143,1080,822.857,1080C804.571,1080,786.286,1080,768,1080C749.714,1080,731.429,1080,713.143,1080C694.857,1080,676.571,1080,658.286,1080C640,1080,621.714,1080,603.429,1080C585.143,1080,566.857,1080,548.571,1080C530.286,1080,512,1080,493.714,1080C475.429,1080,457.143,1080,438.857,1080C420.571,1080,402.286,1080,384,1080C365.714,1080,347.429,1080,329.143,1080C310.857,1080,292.571,1080,274.286,1080C256,1080,237.714,1080,219.429,1080C201.143,1080,182.857,1080,164.571,1080C146.286,1080,128,1080,109.714,1080C91.429,1080,73.143,1080,54.857,1080C36.571,1080,18.286,1080,9.143,1080L0,1080Z"></path></g><g transform="translate(0, 540)"><path fill="rgb(205, 205, 211)" fill-opacity="1" d="M0,344.608L9.143,336.766C18.286,328.923,36.571,313.237,54.857,281.188C73.143,249.138,91.429,200.725,109.714,238.965C128,277.205,146.286,402.098,164.571,454.181C182.857,506.264,201.143,485.537,219.429,479.645C237.714,473.752,256,482.695,274.286,472.32C292.571,461.946,310.857,432.254,329.143,358.184C347.429,284.113,365.714,165.663,384,179.847C402.286,194.032,420.571,340.851,438.857,374.208C457.143,407.565,475.429,327.46,493.714,259.344C512,191.229,530.286,135.103,548.571,133.946C566.857,132.789,585.143,186.602,603.429,261.59C621.714,336.578,640,432.741,658.286,438.509C676.571,444.277,694.857,359.648,713.143,309.779C731.429,259.91,749.714,244.8,768,204.645C786.286,164.49,804.571,99.29,822.857,65.918C841.143,32.545,859.429,31.001,877.714,60.357C896,89.713,914.286,149.97,932.571,231.635C950.857,313.301,969.143,416.376,987.429,451.326C1005.714,486.277,1024,453.103,1042.286,378.825C1060.571,304.547,1078.857,189.164,1097.143,203.361C1115.429,217.558,1133.714,361.334,1152,383.793C1170.286,406.252,1188.571,307.393,1206.857,284.224C1225.143,261.055,1243.429,313.576,1261.714,316.811C1280,320.047,1298.286,273.998,1316.571,279.407C1334.857,284.816,1353.143,341.683,1371.429,369.345C1389.714,397.007,1408,395.464,1426.286,368.932C1444.571,342.4,1462.857,290.88,1481.143,276.013C1499.429,261.146,1517.714,282.933,1536,293.583C1554.286,304.233,1572.571,303.745,1590.857,298.446C1609.143,293.147,1627.429,283.037,1645.714,274.165C1664,265.293,1682.286,257.66,1700.571,221.338C1718.857,185.017,1737.143,120.008,1755.429,81.187C1773.714,42.367,1792,29.736,1810.286,47.773C1828.571,65.81,1846.857,114.514,1865.143,145.132C1883.429,175.75,1901.714,188.282,1910.857,194.548L1920,200.814L1920,540L1910.857,540C1901.714,540,1883.429,540,1865.143,540C1846.857,540,1828.571,540,1810.286,540C1792,540,1773.714,540,1755.429,540C1737.143,540,1718.857,540,1700.571,540C1682.286,540,1664,540,1645.714,540C1627.429,540,1609.143,540,1590.857,540C1572.571,540,1554.286,540,1536,540C1517.714,540,1499.429,540,1481.143,540C1462.857,540,1444.571,540,1426.286,540C1408,540,1389.714,540,1371.429,540C1353.143,540,1334.857,540,1316.571,540C1298.286,540,1280,540,1261.714,540C1243.429,540,1225.143,540,1206.857,540C1188.571,540,1170.286,540,1152,540C1133.714,540,1115.429,540,1097.143,540C1078.857,540,1060.571,540,1042.286,540C1024,540,1005.714,540,987.429,540C969.143,540,950.857,540,932.571,540C914.286,540,896,540,877.714,540C859.429,540,841.143,540,822.857,540C804.571,540,786.286,540,768,540C749.714,540,731.429,540,713.143,540C694.857,540,676.571,540,658.286,540C640,540,621.714,540,603.429,540C585.143,540,566.857,540,548.571,540C530.286,540,512,540,493.714,540C475.429,540,457.143,540,438.857,540C420.571,540,402.286,540,384,540C365.714,540,347.429,540,329.143,540C310.857,540,292.571,540,274.286,540C256,540,237.714,540,219.429,540C201.143,540,182.857,540,164.571,540C146.286,540,128,540,109.714,540C91.429,540,73.143,540,54.857,540C36.571,540,18.286,540,9.143,540L0,540Z"></path></g></g></svg>