<?xml version="1.0" encoding="UTF-8" standalone="no"?>
<svg
   xmlns:dc="http://purl.org/dc/elements/1.1/"
   xmlns:cc="http://creativecommons.org/ns#"
   xmlns:rdf="http://www.w3.org/1999/02/22-rdf-syntax-ns#"
   xmlns:svg="http://www.w3.org/2000/svg"
   xmlns="http://www.w3.org/2000/svg"
   version="1.1"
   id="svg4237"
   viewBox="0 0 116.5214 127.99999"
   height="36.124443mm"
   width="32.88493mm">
  <defs
     id="defs4239" />
  <metadata
     id="metadata4242">
    <rdf:RDF>
      <cc:Work
         rdf:about="">
        <dc:format>image/svg+xml</dc:format>
        <dc:type
           rdf:resource="http://purl.org/dc/dcmitype/StillImage" />
        <dc:title></dc:title>
      </cc:Work>
    </rdf:RDF>
  </metadata>
  <g
     transform="translate(-303.17148,-381.51764)"
     id="layer1">
    <path
       id="path450"
       style="fill:#bdbcbc;fill-opacity:1;fill-rule:evenodd;stroke:#231f20;stroke-width:1.85541499;stroke-linecap:butt;stroke-linejoin:miter;stroke-miterlimit:22.92558479;stroke-dasharray:none;stroke-opacity:1"
       d="m 352.29922,422.5686 60.85074,30.05357 c 1.53467,0.75818 2.47089,2.19224 2.74917,3.93844 0.27735,1.74526 -0.20347,3.37213 -1.37833,4.65247 l -41.21149,44.8535 c -1.87824,2.04618 -4.83426,2.11987 -7.04969,0.4754 l -58.44429,-43.466 44.48389,-40.50738 z" />
    <path
       id="path452"
       style="fill:#d3d2d2;fill-opacity:1;fill-rule:evenodd;stroke:#231f20;stroke-width:1.85541499;stroke-linecap:butt;stroke-linejoin:miter;stroke-miterlimit:22.92558479;stroke-dasharray:none;stroke-opacity:1"
       d="m 352.29922,418.10428 60.85074,30.05207 c 1.53467,0.75968 2.47089,2.19261 2.74917,3.93993 0.27735,1.74638 -0.20347,3.37269 -1.37833,4.65098 l -41.21149,44.855 c -1.87824,2.04729 -4.83426,2.11892 -7.04969,0.47503 l -58.44429,-43.46565 44.48389,-40.50736 z" />
    <path
       id="path454"
       style="fill:#e9e9e9;fill-opacity:1;fill-rule:evenodd;stroke:#231f20;stroke-width:1.85541499;stroke-linecap:butt;stroke-linejoin:miter;stroke-miterlimit:22.92558479;stroke-dasharray:none;stroke-opacity:1"
       d="m 352.29922,413.63957 60.85074,30.0532 c 1.53467,0.75799 2.47089,2.19148 2.74917,3.93769 0.27735,1.74693 -0.20347,3.3727 -1.37833,4.65041 l -41.21149,44.85705 c -1.87824,2.04543 -4.83426,2.11949 -7.04969,0.47353 l -58.44429,-43.46563 44.48389,-40.50625 z" />
    <path
       id="path456"
       style="fill:#ffffff;fill-opacity:1;fill-rule:evenodd;stroke:#231f20;stroke-width:1.85541499;stroke-linecap:butt;stroke-linejoin:miter;stroke-miterlimit:22.92558479;stroke-dasharray:none;stroke-opacity:1"
       d="m 352.2981,409.17318 60.85186,30.05377 c 1.53467,0.75855 2.47089,2.19204 2.74917,3.93992 0.27884,1.74508 -0.20347,3.37045 -1.37833,4.65023 l -41.21149,44.85406 c -1.87824,2.04786 -4.83426,2.12267 -7.04969,0.47503 l -58.44429,-43.46508 44.48277,-40.50793 z" />
    <path
       id="path458"
       style="fill:none;stroke:#231f20;stroke-width:1.85541499;stroke-linecap:butt;stroke-linejoin:miter;stroke-miterlimit:22.92558479;stroke-dasharray:none;stroke-opacity:1"
       d="m 342.20711,417.14263 c -0.72581,-1.55226 -0.80212,-3.17446 -0.20365,-4.4404 1.13762,-2.41273 4.34332,-2.88758 7.16113,-1.06656 2.81446,1.82511 4.17688,5.25672 3.03925,7.6689" />
    <path
       id="path460"
       style="fill:none;stroke:#231f20;stroke-width:1.85541499;stroke-linecap:butt;stroke-linejoin:miter;stroke-miterlimit:22.92558479;stroke-dasharray:none;stroke-opacity:1"
       d="m 332.67104,426.0494 c -0.72623,-1.55226 -0.80104,-3.17446 -0.20407,-4.44096 1.13707,-2.41217 4.34452,-2.89019 7.16043,-1.06563 2.81667,1.82418 4.17798,5.25636 3.03866,7.66797" />
    <path
       id="path462"
       style="fill:none;stroke:#231f20;stroke-width:1.85541499;stroke-linecap:butt;stroke-linejoin:miter;stroke-miterlimit:22.92558479;stroke-dasharray:none;stroke-opacity:1"
       d="m 323.13547,434.95449 c -0.72788,-1.55113 -0.80253,-3.17446 -0.20348,-4.44095 1.13708,-2.41105 4.34393,-2.8887 7.15999,-1.06394 2.81336,1.82211 4.17785,5.25635 3.03928,7.6689" />
    <path
       id="path464"
       style="fill:none;stroke:#231f20;stroke-width:1.85541499;stroke-linecap:butt;stroke-linejoin:miter;stroke-miterlimit:22.92558479;stroke-dasharray:none;stroke-opacity:1"
       d="m 313.599,443.86333 c -0.72668,-1.55431 -0.80268,-3.17708 -0.20303,-4.44301 1.13498,-2.41049 4.34288,-2.88869 7.15834,-1.06545 2.81546,1.82363 4.17845,5.25673 3.04093,7.66984" />
    <path
       id="path466"
       style="fill:none;stroke:#231f20;stroke-width:1.85541499;stroke-linecap:butt;stroke-linejoin:miter;stroke-miterlimit:22.92558479;stroke-dasharray:none;stroke-opacity:1"
       d="m 307.92649,457.11942 c -0.12268,-0.0705 -0.24791,-0.14422 -0.36895,-0.22162 -2.81381,-1.82418 -4.17636,-5.2584 -3.03973,-7.67058 1.13782,-2.41104 4.34378,-2.88814 7.16103,-1.06395 2.81561,1.82268 4.17845,5.25635 3.04018,7.6689" />
    <path
       id="path468"
       style="fill:none;stroke:#231f20;stroke-width:1.85541499;stroke-linecap:butt;stroke-linejoin:miter;stroke-miterlimit:22.92558479;stroke-dasharray:none;stroke-opacity:1"
       d="m 346.64527,412.23992 c -0.72676,-1.55319 -0.80251,-3.17502 -0.20255,-4.44301 1.13614,-2.40992 4.3424,-2.88719 7.15946,-1.06395 2.81557,1.82363 4.17707,5.25617 3.03925,7.66722" />
    <path
       id="path470"
       style="fill:none;stroke:#231f20;stroke-width:1.85541499;stroke-linecap:butt;stroke-linejoin:miter;stroke-miterlimit:22.92558479;stroke-dasharray:none;stroke-opacity:1"
       d="m 337.10878,421.14464 c -0.72638,-1.55076 -0.80044,-3.17446 -0.20258,-4.44095 1.13767,-2.41048 4.34245,-2.88758 7.15895,-1.06452 2.81444,1.82214 4.17856,5.25618 3.04036,7.66723" />
    <path
       id="path472"
       style="fill:none;stroke:#231f20;stroke-width:1.85541499;stroke-linecap:butt;stroke-linejoin:miter;stroke-miterlimit:22.92558479;stroke-dasharray:none;stroke-opacity:1"
       d="m 327.5744,430.05347 c -0.72907,-1.55487 -0.80014,-3.17501 -0.20572,-4.44412 1.13708,-2.40937 4.34333,-2.88814 7.15999,-1.06508 2.8165,1.82363 4.18009,5.25692 3.04077,7.6689" />
    <path
       id="path474"
       style="fill:none;stroke:#231f20;stroke-width:1.85541499;stroke-linecap:butt;stroke-linejoin:miter;stroke-miterlimit:22.92558479;stroke-dasharray:none;stroke-opacity:1"
       d="m 318.03733,438.95707 c -0.72578,-1.55169 -0.80268,-3.17239 -0.20527,-4.44095 1.13723,-2.41105 4.34408,-2.88757 7.15999,-1.06507 2.81665,1.82306 4.1786,5.25636 3.04302,7.66628" />
    <path
       id="path476"
       style="fill:none;stroke:#231f20;stroke-width:1.85541499;stroke-linecap:butt;stroke-linejoin:miter;stroke-miterlimit:22.92558479;stroke-dasharray:none;stroke-opacity:1"
       d="m 309.16067,448.76509 c -0.72668,-1.55169 -0.80044,-3.17501 -0.20453,-4.44001 1.13872,-2.41254 4.34333,-2.88869 7.15999,-1.0677 2.8165,1.82419 4.178,5.25786 3.04077,7.67115" />
    <path
       id="path478"
       style="fill:none;stroke:#231f20;stroke-width:1.85541499;stroke-linecap:butt;stroke-linejoin:miter;stroke-miterlimit:22.92558479;stroke-dasharray:none;stroke-opacity:1"
       d="M 328.83775,457.85571 348.36659,437.5146" />
    <path
       id="path480"
       style="fill:none;stroke:#231f20;stroke-width:1.85541499;stroke-linecap:butt;stroke-linejoin:miter;stroke-miterlimit:22.92558479;stroke-dasharray:none;stroke-opacity:1"
       d="M 337.29326,460.79323 347.35948,450.3067" />
    <path
       id="path482"
       style="fill:none;stroke:#231f20;stroke-width:1.85541499;stroke-linecap:butt;stroke-linejoin:miter;stroke-miterlimit:22.92558479;stroke-dasharray:none;stroke-opacity:1"
       d="m 353.80323,442.75599 11.07544,-11.5342" />
    <path
       id="path484"
       style="fill:#e9e9e9;fill-opacity:1;fill-rule:evenodd;stroke:#231f20;stroke-width:1.85541499;stroke-linecap:butt;stroke-linejoin:miter;stroke-miterlimit:22.92558479;stroke-dasharray:none;stroke-opacity:1"
       d="m 372.35681,437.46466 9.79999,-3.44639 16.26185,7.07418 -31.56524,37.33983 5.5034,-40.96762 z" />
    <path
       id="path486"
       style="fill:#d3d2d2;fill-opacity:1;fill-rule:evenodd;stroke:none"
       d="m 397.59577,440.73413 -20.1195,23.76731 c 0,0 -3.07908,1.31006 -2.33941,-0.12254 l 12.18765,-23.51501 c 5.98254,-3.19354 8.19797,-3.41721 10.27126,-0.12987" />
    <path
       id="path488"
       style="fill:#918f90;fill-opacity:1;fill-rule:evenodd;stroke:#231f20;stroke-width:1.85541499;stroke-linecap:butt;stroke-linejoin:miter;stroke-miterlimit:22.92558479;stroke-dasharray:none;stroke-opacity:1"
       d="m 417.00778,396.35602 -12.1682,0.97288 -19.26876,47.94156 c 0,0 12.04776,-7.4383 12.34475,-3.58329 0.29307,3.85671 19.09221,-45.33115 19.09221,-45.33115 z" />
    <path
       id="path490"
       style="fill:#ffffff;fill-opacity:1;fill-rule:evenodd;stroke:#231f20;stroke-width:1.85541499;stroke-linecap:butt;stroke-linejoin:miter;stroke-miterlimit:22.92558479;stroke-dasharray:none;stroke-opacity:1"
       d="m 404.83958,397.3289 -13.44255,-6.04875 -19.15897,46.18451 c -1.43201,3.45387 11.9767,-4.29563 13.33276,7.8058 -1.2044,2.94854 13.51624,-33.85268 19.26876,-47.94156 z" />
    <path
       id="path492"
       style="fill:#d3d2d2;fill-opacity:1;fill-rule:evenodd;stroke:#231f20;stroke-width:1.85541499;stroke-linecap:butt;stroke-linejoin:miter;stroke-miterlimit:22.92558479;stroke-dasharray:none;stroke-opacity:1"
       d="m 393.51708,389.68543 -2.53149,-3.22476 -17.02471,42.67623 c 0,0 1.22403,-2.85428 -1.72282,8.32776 -2.94816,11.18318 21.27902,-47.77923 21.27902,-47.77923 z" />
    <path
       id="path494"
       style="fill:#231f20;fill-opacity:1;fill-rule:evenodd;stroke:#231f20;stroke-width:1.85541499;stroke-linecap:butt;stroke-linejoin:miter;stroke-miterlimit:22.92558479;stroke-dasharray:none;stroke-opacity:1"
       d="m 378.78148,464.32021 -11.92807,14.11207 c 0.78192,-5.82395 1.56441,-11.64754 2.34577,-17.47111 2.82942,2.95246 6.10038,4.06504 9.5823,3.35904 z" />
    <path
       id="path496"
       style="fill:#ffffff;fill-opacity:1;fill-rule:evenodd;stroke:none"
       d="m 370.37291,462.05915 -2.0716,10.7203 3.07684,-9.96437 -1.00524,-0.75593 z" />
    <path
       id="path498"
       style="fill:#e9e9e9;fill-opacity:1;fill-rule:evenodd;stroke:#231f20;stroke-width:1.85541499;stroke-linecap:butt;stroke-linejoin:miter;stroke-miterlimit:22.92558479;stroke-dasharray:none;stroke-opacity:1"
       d="m 407.93175,385.70567 c 6.98235,3.15595 10.82372,8.33955 8.58547,11.5718 -2.24291,3.23281 -9.72087,3.29378 -16.70172,0.1357 -6.98291,-3.16024 -10.82485,-8.34067 -8.58661,-11.5761 2.24256,-3.23375 9.72162,-3.2921 16.70286,-0.13151 z" />
    <path
       id="path500"
       style="fill:#231f20;fill-opacity:1;fill-rule:evenodd;stroke:#231f20;stroke-width:1.85541499;stroke-linecap:butt;stroke-linejoin:miter;stroke-miterlimit:22.92558479;stroke-dasharray:none;stroke-opacity:1"
       d="m 405.08981,389.80158 c 2.09666,0.94893 3.2487,2.50268 2.5775,3.47349 -0.67215,0.96895 -2.91638,0.98915 -5.00987,0.0396 -2.09498,-0.94687 -3.24964,-2.50212 -2.57469,-3.47237 0.67009,-0.96914 2.91245,-0.98766 5.00706,-0.0407 z" />
    <path
       id="path502"
       style="fill:none;stroke:#231f20;stroke-width:3.71101737;stroke-linecap:butt;stroke-linejoin:miter;stroke-miterlimit:22.92558479;stroke-dasharray:none;stroke-opacity:1"
       d="m 407.93175,385.70567 c 6.35209,2.87186 10.10651,7.42091 9.04367,10.65354 l 0.0323,-0.003 c 0,0 -8.06818,23.55222 -14.26225,37.73275 l 10.40442,5.13816 c 1.53468,0.75855 2.52084,2.51278 2.74918,3.93993 0.22854,1.42489 0.0467,2.16493 -0.37105,3.11873 0.17076,0.41985 0.29531,0.87094 0.37105,1.34485 0.17562,1.10697 0.0467,2.16774 -0.37105,3.11929 0.17076,0.42154 0.29531,0.87114 0.37105,1.34654 0.17562,1.10546 0.0467,2.16623 -0.37105,3.11891 0.17076,0.42042 0.29531,0.87151 0.37105,1.34541 0.27736,1.74526 -0.20348,3.37215 -1.37833,4.65248 l -41.2115,44.8535 c -1.87822,2.04617 -4.83424,2.11986 -7.04967,0.47541 l -58.44431,-43.46602 2.69726,-2.45781 -2.69726,-2.00651 2.69726,-2.45818 -2.69726,-2.00766 2.69726,-2.45668 -2.69726,-2.00801 44.48278,-40.50794 23.47686,11.59611 14.85604,-33.41543 c 0.0774,-0.53804 0.27397,-1.04748 0.59789,-1.51672 2.24255,-3.23374 9.72162,-3.29209 16.70286,-0.13151 z" />
  </g>
</svg>
